<?xml version="1.0" encoding="UTF-8" standalone="no"?>
<!DOCTYPE svg PUBLIC "-//W3C//DTD SVG 1.1//EN"
 "http://www.w3.org/Graphics/SVG/1.1/DTD/svg11.dtd">
<!-- Generated by graphviz version 2.40.1 (20161225.0304)
 -->
<!-- Title: dependencies Pages: 1 -->
<svg width="645pt" height="284pt"
 viewBox="0.00 0.00 645.00 284.00" xmlns="http://www.w3.org/2000/svg" xmlns:xlink="http://www.w3.org/1999/xlink">
<g id="graph0" class="graph" transform="scale(1 1) rotate(0) translate(4 280)">
<title>dependencies</title>
<polygon fill="#ffffff" stroke="transparent" points="-4,4 -4,-280 641,-280 641,4 -4,4"/>
<text text-anchor="start" x="297.5091" y="-42.4" font-family="sans-serif" font-weight="bold" font-size="14.00" fill="#000000">Legend</text>
<polygon fill="#ffffb3" stroke="transparent" points="84.5,-10 84.5,-30 104.5,-30 104.5,-10 84.5,-10"/>
<text text-anchor="start" x="108.129" y="-15.4" font-family="sans-serif" font-size="14.00" fill="#000000"> &#160;Declarations</text>
<polygon fill="#8dd3c7" stroke="transparent" points="197.5,-10 197.5,-30 217.5,-30 217.5,-10 197.5,-10"/>
<text text-anchor="start" x="221.2251" y="-15.4" font-family="sans-serif" font-size="14.00" fill="#000000"> &#160;Module</text>
<polygon fill="#80b1d3" stroke="transparent" points="283.5,-10 283.5,-30 303.5,-30 303.5,-10 283.5,-10"/>
<text text-anchor="start" x="307.2812" y="-15.4" font-family="sans-serif" font-size="14.00" fill="#000000"> &#160;Bootstrap</text>
<polygon fill="#fdb462" stroke="transparent" points="380.5,-10 380.5,-30 400.5,-30 400.5,-10 380.5,-10"/>
<text text-anchor="start" x="404.1732" y="-15.4" font-family="sans-serif" font-size="14.00" fill="#000000"> &#160;Providers</text>
<polygon fill="#fb8072" stroke="transparent" points="476.5,-10 476.5,-30 496.5,-30 496.5,-10 476.5,-10"/>
<text text-anchor="start" x="500.2258" y="-15.4" font-family="sans-serif" font-size="14.00" fill="#000000"> &#160;Exports</text>
<g id="clust1" class="cluster">
<title>cluster_AppModule</title>
<polygon fill="none" stroke="#000000" stroke-dasharray="1,5" points="8,-70 8,-268 629,-268 629,-70 8,-70"/>
</g>
<g id="clust2" class="cluster">
<title>cluster_AppModule_declarations</title>
<polygon fill="none" stroke="#000000" points="16,-78 16,-130 621,-130 621,-78 16,-78"/>
</g>
<g id="clust9" class="cluster">
<title>cluster_AppModule_bootstrap</title>
<polygon fill="none" stroke="#000000" points="273,-208 273,-260 397,-260 397,-208 273,-208"/>
</g>
<!-- AppComponent -->
<g id="node1" class="node">
<title>AppComponent</title>
<polygon fill="#ffffb3" stroke="#000000" points="612.9399,-122 507.0601,-122 507.0601,-86 612.9399,-86 612.9399,-122"/>
<text text-anchor="middle" x="560" y="-99.8" font-family="Times,serif" font-size="14.00" fill="#000000">AppComponent</text>
</g>
<!-- AppModule -->
<g id="node5" class="node">
<title>AppModule</title>
<polygon fill="#8dd3c7" stroke="#000000" points="376.6571,-187 373.6571,-191 352.6571,-191 349.6571,-187 293.3429,-187 293.3429,-151 376.6571,-151 376.6571,-187"/>
<text text-anchor="middle" x="335" y="-164.8" font-family="Times,serif" font-size="14.00" fill="#000000">AppModule</text>
</g>
<!-- AppComponent&#45;&gt;AppModule -->
<g id="edge1" class="edge">
<title>AppComponent&#45;&gt;AppModule</title>
<path fill="none" stroke="#000000" d="M560,-122.1061C560,-141.3391 560,-169 560,-169 560,-169 386.7935,-169 386.7935,-169"/>
<polygon fill="#000000" stroke="#000000" points="386.7935,-165.5001 376.7935,-169 386.7934,-172.5001 386.7935,-165.5001"/>
</g>
<!-- TimerButtonComponent -->
<g id="node2" class="node">
<title>TimerButtonComponent</title>
<polygon fill="#ffffb3" stroke="#000000" points="488.6596,-122 335.3404,-122 335.3404,-86 488.6596,-86 488.6596,-122"/>
<text text-anchor="middle" x="412" y="-99.8" font-family="Times,serif" font-size="14.00" fill="#000000">TimerButtonComponent</text>
</g>
<!-- TimerButtonComponent&#45;&gt;AppModule -->
<g id="edge2" class="edge">
<title>TimerButtonComponent&#45;&gt;AppModule</title>
<path fill="none" stroke="#000000" d="M355.9993,-122.1061C355.9993,-122.1061 355.9993,-140.991 355.9993,-140.991"/>
<polygon fill="#000000" stroke="#000000" points="352.4994,-140.9909 355.9993,-150.991 359.4994,-140.991 352.4994,-140.9909"/>
</g>
<!-- TimerComponent -->
<g id="node3" class="node">
<title>TimerComponent</title>
<polygon fill="#ffffb3" stroke="#000000" points="316.5423,-122 201.4577,-122 201.4577,-86 316.5423,-86 316.5423,-122"/>
<text text-anchor="middle" x="259" y="-99.8" font-family="Times,serif" font-size="14.00" fill="#000000">TimerComponent</text>
</g>
<!-- TimerComponent&#45;&gt;AppModule -->
<g id="edge3" class="edge">
<title>TimerComponent&#45;&gt;AppModule</title>
<path fill="none" stroke="#000000" d="M304.9713,-122.1061C304.9713,-122.1061 304.9713,-140.991 304.9713,-140.991"/>
<polygon fill="#000000" stroke="#000000" points="301.4713,-140.9909 304.9713,-150.991 308.4713,-140.991 301.4713,-140.9909"/>
</g>
<!-- TimerDisplayComponent -->
<g id="node4" class="node">
<title>TimerDisplayComponent</title>
<polygon fill="#ffffb3" stroke="#000000" points="183.5884,-122 24.4116,-122 24.4116,-86 183.5884,-86 183.5884,-122"/>
<text text-anchor="middle" x="104" y="-99.8" font-family="Times,serif" font-size="14.00" fill="#000000">TimerDisplayComponent</text>
</g>
<!-- TimerDisplayComponent&#45;&gt;AppModule -->
<g id="edge4" class="edge">
<title>TimerDisplayComponent&#45;&gt;AppModule</title>
<path fill="none" stroke="#000000" d="M104,-122.1061C104,-141.3391 104,-169 104,-169 104,-169 283.1676,-169 283.1676,-169"/>
<polygon fill="#000000" stroke="#000000" points="283.1677,-172.5001 293.1676,-169 283.1676,-165.5001 283.1677,-172.5001"/>
</g>
<!-- AppComponent  -->
<g id="node6" class="node">
<title>AppComponent </title>
<polygon fill="#80b1d3" stroke="#000000" points="389.439,-252 280.561,-252 280.561,-216 389.439,-216 389.439,-252"/>
<text text-anchor="middle" x="335" y="-229.8" font-family="Times,serif" font-size="14.00" fill="#000000">AppComponent </text>
</g>
<!-- AppModule&#45;&gt;AppComponent  -->
<g id="edge5" class="edge">
<title>AppModule&#45;&gt;AppComponent </title>
<path fill="none" stroke="#000000" stroke-dasharray="1,5" d="M335,-187.1061C335,-187.1061 335,-205.991 335,-205.991"/>
<polygon fill="#000000" stroke="#000000" points="331.5001,-205.9909 335,-215.991 338.5001,-205.991 331.5001,-205.9909"/>
</g>
</g>
</svg>
