<?xml version="1.0" encoding="UTF-8" standalone="no"?>
<!DOCTYPE svg PUBLIC "-//W3C//DTD SVG 1.1//EN"
 "http://www.w3.org/Graphics/SVG/1.1/DTD/svg11.dtd">
<!-- Generated by graphviz version 2.40.1 (20161225.0304)
 -->
<!-- Title: dependencies Pages: 1 -->
<svg width="808pt" height="284pt"
 viewBox="0.00 0.00 808.00 284.00" xmlns="http://www.w3.org/2000/svg" xmlns:xlink="http://www.w3.org/1999/xlink">
<g id="graph0" class="graph" transform="scale(1 1) rotate(0) translate(4 280)">
<title>dependencies</title>
<polygon fill="#ffffff" stroke="transparent" points="-4,4 -4,-280 804,-280 804,4 -4,4"/>
<text text-anchor="start" x="379.0091" y="-42.4" font-family="sans-serif" font-weight="bold" font-size="14.00" fill="#000000">Legend</text>
<polygon fill="#ffffb3" stroke="transparent" points="166,-10 166,-30 186,-30 186,-10 166,-10"/>
<text text-anchor="start" x="189.629" y="-15.4" font-family="sans-serif" font-size="14.00" fill="#000000"> &#160;Declarations</text>
<polygon fill="#8dd3c7" stroke="transparent" points="279,-10 279,-30 299,-30 299,-10 279,-10"/>
<text text-anchor="start" x="302.7251" y="-15.4" font-family="sans-serif" font-size="14.00" fill="#000000"> &#160;Module</text>
<polygon fill="#80b1d3" stroke="transparent" points="365,-10 365,-30 385,-30 385,-10 365,-10"/>
<text text-anchor="start" x="388.7812" y="-15.4" font-family="sans-serif" font-size="14.00" fill="#000000"> &#160;Bootstrap</text>
<polygon fill="#fdb462" stroke="transparent" points="462,-10 462,-30 482,-30 482,-10 462,-10"/>
<text text-anchor="start" x="485.6732" y="-15.4" font-family="sans-serif" font-size="14.00" fill="#000000"> &#160;Providers</text>
<polygon fill="#fb8072" stroke="transparent" points="558,-10 558,-30 578,-30 578,-10 558,-10"/>
<text text-anchor="start" x="581.7258" y="-15.4" font-family="sans-serif" font-size="14.00" fill="#000000"> &#160;Exports</text>
<g id="clust1" class="cluster">
<title>cluster_AppModule</title>
<polygon fill="none" stroke="#000000" stroke-dasharray="1,5" points="8,-70 8,-268 792,-268 792,-70 8,-70"/>
</g>
<g id="clust2" class="cluster">
<title>cluster_AppModule_declarations</title>
<polygon fill="none" stroke="#000000" points="16,-78 16,-130 784,-130 784,-78 16,-78"/>
</g>
<g id="clust10" class="cluster">
<title>cluster_AppModule_bootstrap</title>
<polygon fill="none" stroke="#000000" points="360,-208 360,-260 484,-260 484,-208 360,-208"/>
</g>
<!-- AppComponent -->
<g id="node1" class="node">
<title>AppComponent</title>
<polygon fill="#ffffb3" stroke="#000000" points="775.9399,-122 670.0601,-122 670.0601,-86 775.9399,-86 775.9399,-122"/>
<text text-anchor="middle" x="723" y="-99.8" font-family="Times,serif" font-size="14.00" fill="#000000">AppComponent</text>
</g>
<!-- AppModule -->
<g id="node6" class="node">
<title>AppModule</title>
<polygon fill="#8dd3c7" stroke="#000000" points="463.6571,-187 460.6571,-191 439.6571,-191 436.6571,-187 380.3429,-187 380.3429,-151 463.6571,-151 463.6571,-187"/>
<text text-anchor="middle" x="422" y="-164.8" font-family="Times,serif" font-size="14.00" fill="#000000">AppModule</text>
</g>
<!-- AppComponent&#45;&gt;AppModule -->
<g id="edge1" class="edge">
<title>AppComponent&#45;&gt;AppModule</title>
<path fill="none" stroke="#000000" d="M723,-122.2843C723,-143.3211 723,-175 723,-175 723,-175 473.8528,-175 473.8528,-175"/>
<polygon fill="#000000" stroke="#000000" points="473.8528,-171.5001 463.8528,-175 473.8527,-178.5001 473.8528,-171.5001"/>
</g>
<!-- TimerButtonComponent -->
<g id="node2" class="node">
<title>TimerButtonComponent</title>
<polygon fill="#ffffb3" stroke="#000000" points="651.6596,-122 498.3404,-122 498.3404,-86 651.6596,-86 651.6596,-122"/>
<text text-anchor="middle" x="575" y="-99.8" font-family="Times,serif" font-size="14.00" fill="#000000">TimerButtonComponent</text>
</g>
<!-- TimerButtonComponent&#45;&gt;AppModule -->
<g id="edge2" class="edge">
<title>TimerButtonComponent&#45;&gt;AppModule</title>
<path fill="none" stroke="#000000" d="M575,-122.0225C575,-139.3734 575,-163 575,-163 575,-163 473.8079,-163 473.8079,-163"/>
<polygon fill="#000000" stroke="#000000" points="473.808,-159.5001 463.8079,-163 473.8079,-166.5001 473.808,-159.5001"/>
</g>
<!-- TimerComponent -->
<g id="node3" class="node">
<title>TimerComponent</title>
<polygon fill="#ffffb3" stroke="#000000" points="479.5423,-122 364.4577,-122 364.4577,-86 479.5423,-86 479.5423,-122"/>
<text text-anchor="middle" x="422" y="-99.8" font-family="Times,serif" font-size="14.00" fill="#000000">TimerComponent</text>
</g>
<!-- TimerComponent&#45;&gt;AppModule -->
<g id="edge3" class="edge">
<title>TimerComponent&#45;&gt;AppModule</title>
<path fill="none" stroke="#000000" d="M422,-122.1061C422,-122.1061 422,-140.991 422,-140.991"/>
<polygon fill="#000000" stroke="#000000" points="418.5001,-140.9909 422,-150.991 425.5001,-140.991 418.5001,-140.9909"/>
</g>
<!-- TimerDisplayComponent -->
<g id="node4" class="node">
<title>TimerDisplayComponent</title>
<polygon fill="#ffffb3" stroke="#000000" points="346.5884,-122 187.4116,-122 187.4116,-86 346.5884,-86 346.5884,-122"/>
<text text-anchor="middle" x="267" y="-99.8" font-family="Times,serif" font-size="14.00" fill="#000000">TimerDisplayComponent</text>
</g>
<!-- TimerDisplayComponent&#45;&gt;AppModule -->
<g id="edge4" class="edge">
<title>TimerDisplayComponent&#45;&gt;AppModule</title>
<path fill="none" stroke="#000000" d="M267,-122.0225C267,-139.3734 267,-163 267,-163 267,-163 370.0548,-163 370.0548,-163"/>
<polygon fill="#000000" stroke="#000000" points="370.0548,-166.5001 380.0548,-163 370.0547,-159.5001 370.0548,-166.5001"/>
</g>
<!-- TimerInputComponent -->
<g id="node5" class="node">
<title>TimerInputComponent</title>
<polygon fill="#ffffb3" stroke="#000000" points="169.5926,-122 24.4074,-122 24.4074,-86 169.5926,-86 169.5926,-122"/>
<text text-anchor="middle" x="97" y="-99.8" font-family="Times,serif" font-size="14.00" fill="#000000">TimerInputComponent</text>
</g>
<!-- TimerInputComponent&#45;&gt;AppModule -->
<g id="edge5" class="edge">
<title>TimerInputComponent&#45;&gt;AppModule</title>
<path fill="none" stroke="#000000" d="M97,-122.2843C97,-143.3211 97,-175 97,-175 97,-175 370.1773,-175 370.1773,-175"/>
<polygon fill="#000000" stroke="#000000" points="370.1773,-178.5001 380.1773,-175 370.1772,-171.5001 370.1773,-178.5001"/>
</g>
<!-- AppComponent  -->
<g id="node7" class="node">
<title>AppComponent </title>
<polygon fill="#80b1d3" stroke="#000000" points="476.439,-252 367.561,-252 367.561,-216 476.439,-216 476.439,-252"/>
<text text-anchor="middle" x="422" y="-229.8" font-family="Times,serif" font-size="14.00" fill="#000000">AppComponent </text>
</g>
<!-- AppModule&#45;&gt;AppComponent  -->
<g id="edge6" class="edge">
<title>AppModule&#45;&gt;AppComponent </title>
<path fill="none" stroke="#000000" stroke-dasharray="1,5" d="M422,-187.1061C422,-187.1061 422,-205.991 422,-205.991"/>
<polygon fill="#000000" stroke="#000000" points="418.5001,-205.9909 422,-215.991 425.5001,-205.991 418.5001,-205.9909"/>
</g>
</g>
</svg>
